<?xml version="1.0" encoding="UTF-8"?>
<svg xmlns="http://www.w3.org/2000/svg" xmlns:xlink="http://www.w3.org/1999/xlink" width="120px" height="121px" viewBox="0 0 120 120" version="1.1">
<g id="surface1">
<path style=" stroke:none;fill-rule:nonzero;fill:rgb(0%,73.72549%,83.137255%);fill-opacity:1;" d="M 78.113281 21.601562 C 75.773438 22.078125 74.378906 22.445312 72.828125 22.96875 C 70.640625 23.71875 69.601562 24.367188 67.703125 26.195312 C 65.644531 28.164062 63.90625 30.1875 58.5 36.910156 C 49.398438 48.226562 43.980469 55.425781 38.023438 64.125 L 37.023438 65.578125 L 32.605469 65.578125 C 28.359375 65.578125 28.140625 65.585938 27.167969 65.792969 C 23.296875 66.609375 20.824219 68.351562 19.265625 71.34375 C 18.8125 72.214844 18.257812 73.660156 18.339844 73.753906 C 18.371094 73.773438 18.605469 73.6875 18.871094 73.554688 C 19.34375 73.3125 19.824219 73.238281 19.824219 73.398438 C 19.824219 73.445312 19.730469 73.714844 19.625 74.007812 C 19.511719 74.296875 19.4375 74.558594 19.464844 74.578125 C 19.492188 74.605469 19.804688 74.503906 20.164062 74.34375 C 22.824219 73.152344 26.414062 72.515625 30.773438 72.449219 C 32.417969 72.421875 32.425781 72.421875 32.453125 72.628906 C 32.472656 72.757812 32.105469 73.472656 31.433594 74.585938 C 26.167969 83.335938 23.542969 89.679688 23.34375 94.125 C 23.261719 95.992188 23.375 96.308594 24.628906 97.820312 C 25.488281 98.851562 25.894531 99.027344 27.421875 99.074219 C 28.292969 99.101562 28.773438 99.066406 29.453125 98.925781 C 30.414062 98.726562 36.078125 96.742188 36.136719 96.582031 C 36.15625 96.523438 36.058594 96.320312 35.917969 96.113281 C 35.777344 95.898438 35.703125 95.679688 35.738281 95.585938 C 35.777344 95.492188 35.664062 95.183594 35.464844 94.800781 C 34.863281 93.65625 34.8125 92.820312 35.210938 90.328125 C 35.738281 87.027344 37.277344 82.808594 39.742188 77.886719 C 41.15625 75.074219 42.140625 73.292969 42.339844 73.164062 C 42.5 73.058594 43.660156 73.058594 49.75 73.171875 C 58.78125 73.339844 62.539062 73.257812 68.910156 72.75 C 70.1875 72.648438 71.308594 72.542969 71.421875 72.515625 C 71.808594 72.429688 71.914062 72.722656 72.355469 75.101562 C 74.492188 86.691406 77.046875 93.523438 80.589844 97.070312 C 81.042969 97.527344 81.675781 98.070312 81.976562 98.277344 C 84.421875 99.929688 87.347656 99.121094 91.226562 95.738281 C 91.773438 95.257812 92.226562 94.835938 92.226562 94.800781 C 92.226562 94.761719 92.058594 94.613281 91.851562 94.472656 C 91.453125 94.191406 91.398438 94.003906 91.613281 93.710938 C 91.691406 93.609375 91.753906 93.496094 91.753906 93.46875 C 91.753906 93.441406 91.480469 93.214844 91.152344 92.972656 C 89.765625 91.960938 88.214844 89.992188 87.234375 87.992188 C 85.714844 84.910156 84.703125 81.414062 83.308594 74.34375 C 81.511719 65.242188 80.429688 56.351562 79.945312 46.59375 C 79.796875 43.566406 79.796875 35.625 79.9375 33.5625 C 80.210938 29.851562 80.816406 24.496094 81.144531 22.949219 C 81.191406 22.726562 81.164062 22.695312 80.882812 22.667969 L 80.570312 22.640625 L 80.589844 21.910156 L 80.617188 21.1875 L 80.351562 21.195312 C 80.210938 21.195312 79.210938 21.375 78.113281 21.601562 Z M 68.742188 39.496094 C 68.855469 46.226562 69.394531 52.996094 70.574219 62.652344 C 70.761719 64.179688 70.894531 65.492188 70.867188 65.570312 C 70.722656 65.933594 64.144531 66.300781 57.488281 66.320312 C 51.757812 66.328125 46.980469 66.207031 46.753906 66.046875 C 46.59375 65.925781 46.605469 65.886719 46.898438 65.277344 C 47.738281 63.589844 49.832031 60.046875 51.484375 57.535156 C 54.667969 52.6875 57.988281 48.308594 64.617188 40.265625 C 68.648438 35.363281 68.449219 35.597656 68.570312 35.71875 C 68.636719 35.785156 68.695312 36.992188 68.742188 39.496094 Z M 68.742188 39.496094 "/>
</g>
</svg>
